<?xml version="1.0" encoding="UTF-8"?>
<svg id="Layer_1" data-name="Layer 1" xmlns="http://www.w3.org/2000/svg" viewBox="0 0 429 633.06">
  <path d="M331.21,361.89l4.71,229.09c1.08,14.48-.9,23.9-5.92,28.27-5.03,4.38-16.34,6.56-33.92,6.56-1.08,0-1.61,1.01-1.61,3.03s.54,3.03,1.61,3.03c8.25,0,17.58-.17,28-.5,10.41-.33,21.54-.51,33.38-.51,12.56,0,24.41.17,35.54.51,11.12.34,25.95.5,34.93.5.72,0,1.08-1.01,1.08-3.03s-.36-3.03-1.08-3.03c-12.57,0-26.67-.84-32.77-2.52-6.11-1.68-10.23-5.05-12.38-10.1-2.15-5.05-3.59-12.45-4.31-22.22l-11.55-548.57c-.34-13.8,3.2-23.31,10.6-28.53,7.4-5.21,19.19-7.83,35.34-7.83.67,0,1.01-1.01,1.01-3.03s-.34-3.03-1.01-3.03c-6.74,0-13.3.17-19.69.5-6.4.34-14.31.5-23.73.5-4.72,0-8.84-.17-12.37-.5-3.54-.33-6.49-.5-8.84-.5-3.37,0-6.19,1.24-8.84,3.28-2.32,1.79-5.86,8.22-7.77,12.59l-115.66,241.67L101.87,29.61c-5.39-11.11-9-18.37-11.69-21.57-2.7-3.2-6.4-4.8-11.11-4.8-2.7,0-6.65.17-11.87.5-5.22.34-11.03.5-17.42.5-4.72,0-10.35-.17-16.91-.5-6.56-.33-12.88-.5-18.93-.5-.68,0-1.01,1.01-1.01,3.03s.33,3.03,1.01,3.03c17.84,0,32.73,12.97,43.38,34.01l-11.03,530.95c-.36,17.51-4.22,30.47-11.58,38.88-7.36,8.42-18.56,12.62-33.63,12.62-.72,0-1.08,1.01-1.08,3.03s.35,3.03,1.08,3.03c7.54,0,15.59-.17,24.21-.5,8.62-.33,17.77-.51,27.46-.51,10.41,0,19.74.17,28,.51,8.25.34,16.33.5,24.23.5,1.08,0,1.62-1.01,1.62-3.03s-.54-3.03-1.62-3.03c-16.51,0-28.27-4.21-35.27-12.62-7-8.41-10.32-21.37-9.96-38.88l3.49-206.05,132.43,261.73c2.12,4.2,5.52,4.16,7.55-.09l127.99-267.96ZM325.02,61.26l4.75,230.07c1.23,33.25-11.74,66.3-26.11,96.31l-87.73,183.15L87.35,314.47h0c-14.52-29.53-21.74-62.11-21.06-95.01l3.13-152.23,118.51,234.21c6.38,12.61,16.57,12.49,22.66-.26l114.44-239.91Z"/>
</svg>